<svg width="24" height="24" viewBox="0 0 24 24" fill="none" xmlns="http://www.w3.org/2000/svg">
<path d="M6.01454 19.5355C4.72043 19.5355 3.93842 18.6054 3.88306 17.3099C3.88306 14.6727 6.45975 13.763 10.3421 13.7324C14.2314 13.7733 16.815 14.683 16.8011 17.3099C16.7389 18.6054 15.9615 19.5355 14.6697 19.5355H6.01454Z" stroke="#667085" stroke-width="1.44" stroke-miterlimit="10"/>
<path d="M18.1861 19.3905C19.4126 19.3905 20.1508 18.5073 20.2099 17.2772C20.2179 15.7723 19.3281 14.861 17.8098 14.3662" stroke="#667085" stroke-width="1.44" stroke-miterlimit="10" stroke-linecap="round"/>
<path d="M10.1118 11.2124C11.9747 11.2124 13.4849 9.70225 13.4849 7.83936C13.4849 5.97647 11.9747 4.46631 10.1118 4.46631C8.24894 4.46631 6.73877 5.97647 6.73877 7.83936C6.73877 9.70225 8.24894 11.2124 10.1118 11.2124Z" stroke="#667085" stroke-width="1.44" stroke-miterlimit="10"/>
<path d="M15.6057 5.29883C16.7158 5.71236 17.5064 6.78183 17.5064 8.03596C17.5064 9.2901 16.7158 10.3595 15.6057 10.7731" stroke="#667085" stroke-width="1.44" stroke-miterlimit="10" stroke-linecap="round"/>
</svg>
