<svg width="24" height="24" viewBox="0 0 24 24" fill="none" xmlns="http://www.w3.org/2000/svg">
<path d="M20.1231 8.84319V15.1387C20.1231 15.9728 19.6775 16.7443 18.9555 17.1609L13.5035 20.3087C12.7805 20.7262 11.8904 20.7262 11.1674 20.3087L5.71541 17.1609C4.9934 16.7443 4.54785 15.9728 4.54785 15.1387V8.84319C4.54785 8.00816 4.9934 7.23757 5.71541 6.82004L11.1674 3.67231C11.8904 3.25572 12.7805 3.25572 13.5035 3.67231L18.9555 6.82004C19.6775 7.23757 20.1231 8.00816 20.1231 8.84319Z" stroke="#667085" stroke-width="1.44" stroke-linecap="round" stroke-linejoin="round"/>
<path d="M8.9043 5.32422L16.3654 9.64046V12.2707" stroke="#667085" stroke-width="1.44" stroke-linecap="round" stroke-linejoin="round"/>
<path d="M4.87134 7.64648L12.3325 11.9627L19.7928 7.64648" stroke="#667085" stroke-width="1.44" stroke-linecap="round" stroke-linejoin="round"/>
<path d="M12.3376 20.6399V11.9561" stroke="#667085" stroke-width="1.44" stroke-linecap="round" stroke-linejoin="round"/>
</svg>
